<svg xmlns="http://www.w3.org/2000/svg" xmlns:xlink="http://www.w3.org/1999/xlink" width="330.614" height="107.601" viewBox="0 0 330.614 107.601"><defs><style>.a{fill:none;}.b{clip-path:url(#a);}.c{fill:#a2a2a2;}.d{fill:#fff;}</style><clipPath id="a"><rect class="a" width="330.614" height="107.601"/></clipPath></defs><g class="b"><path class="c" d="M304.284,0H26.341c-1.011,0-2.014,0-3.023.005-.848.005-1.685.022-2.539.035a37.274,37.274,0,0,0-5.537.473A18.86,18.86,0,0,0,9.99,2.2,17.757,17.757,0,0,0,5.517,5.372,16.923,16.923,0,0,0,2.263,9.733,17.5,17.5,0,0,0,.536,14.852a33.951,33.951,0,0,0-.495,5.385C.017,21.063.014,21.891,0,22.715v62.18c.014.834.017,1.644.041,2.478a33.893,33.893,0,0,0,.495,5.385,17.448,17.448,0,0,0,1.727,5.125,16.786,16.786,0,0,0,3.255,4.342A17.3,17.3,0,0,0,9.99,105.4a18.972,18.972,0,0,0,5.252,1.7,38.008,38.008,0,0,0,5.537.473c.854.019,1.691.03,2.539.03,1.008.005,2.011.005,3.023.005H304.284c.995,0,2,0,2.995-.005.845,0,1.707-.011,2.55-.03a37.533,37.533,0,0,0,5.526-.473,19.308,19.308,0,0,0,5.272-1.7,17.161,17.161,0,0,0,9.441-12.638,35.62,35.62,0,0,0,.517-5.385c.006-.834.006-1.644.006-2.478.022-.979.022-1.95.022-2.943v-56.3c0-.985,0-1.961-.022-2.938,0-.823,0-1.652-.006-2.478a35.687,35.687,0,0,0-.517-5.385,17.016,17.016,0,0,0-4.973-9.48A17.826,17.826,0,0,0,320.626,2.2,19.193,19.193,0,0,0,315.355.514,36.814,36.814,0,0,0,309.829.04c-.843-.013-1.7-.03-2.55-.035-.992-.005-2-.005-2.995-.005"/><path d="M21.793,103.769c-.843,0-1.663-.011-2.5-.03a35.781,35.781,0,0,1-5.164-.438,16.5,16.5,0,0,1-4.578-1.474,14.883,14.883,0,0,1-3.86-2.733,14.361,14.361,0,0,1-2.821-3.758,15.19,15.19,0,0,1-1.5-4.457,32.467,32.467,0,0,1-.459-5.044C.9,85.267.873,83.378.873,83.378V21.236s.025-1.859.041-2.4A32.368,32.368,0,0,1,1.37,13.8a15.2,15.2,0,0,1,1.5-4.471,14.381,14.381,0,0,1,2.8-3.761A15.42,15.42,0,0,1,9.551,2.812a16.4,16.4,0,0,1,4.57-1.463A35.839,35.839,0,0,1,19.3.907L21.793.875H305.729l2.522.035a35.079,35.079,0,0,1,5.133.436A16.758,16.758,0,0,1,318,2.82a15.273,15.273,0,0,1,3.846,2.733,14.9,14.9,0,0,1,2.826,3.777,15.237,15.237,0,0,1,1.481,4.436,34.7,34.7,0,0,1,.478,5.076c.008.761.008,1.582.008,2.394.025,1.009.025,1.969.025,2.938v56.3c0,.976,0,1.931-.025,2.892,0,.874,0,1.676-.011,2.5a33.636,33.636,0,0,1-.472,4.985,15.054,15.054,0,0,1-1.492,4.492,14.69,14.69,0,0,1-2.8,3.728A14.954,14.954,0,0,1,318,101.821a16.5,16.5,0,0,1-4.611,1.48,35.335,35.335,0,0,1-5.164.438c-.807.019-1.658.03-2.481.03l-2.995.005Z" transform="translate(1.539 1.479)"/><path class="d" d="M50.855,31c-.069-7.4,6.222-11,6.509-11.169a14.123,14.123,0,0,0-11.027-5.805c-4.639-.473-9.137,2.7-11.5,2.7-2.409,0-6.048-2.655-9.968-2.577a14.742,14.742,0,0,0-12.358,7.338c-5.343,9.006-1.359,22.244,3.76,29.523,2.561,3.57,5.553,7.551,9.471,7.408,3.832-.153,5.263-2.378,9.888-2.378,4.584,0,5.926,2.378,9.921,2.289,4.111-.065,6.7-3.583,9.173-7.182a29.054,29.054,0,0,0,4.2-8.318c-.1-.032-7.987-2.962-8.065-11.833" transform="translate(17.578 23.615)"/><path class="d" d="M27.788,18.111A12.885,12.885,0,0,0,30.869,8.72a13.836,13.836,0,0,0-8.863,4.465c-1.9,2.163-3.6,5.711-3.161,9.041,3.351.245,6.794-1.646,8.943-4.116" transform="translate(33.097 14.737)"/><path class="d" d="M56.184,42.455H43.108l-3.141,9.028h-5.54l12.389-33.4h5.755l12.386,33.4H59.323ZM44.462,38.288H54.828L49.717,23.636h-.141Z" transform="translate(60.69 30.552)"/><path class="d" d="M70.194,33.781c0,7.567-4.164,12.431-10.438,12.431-3.567,0-6.4-1.552-7.874-4.261h-.119V54.013H46.632V21.6H51.6v4.051H51.7a8.913,8.913,0,0,1,7.963-4.307c6.352,0,10.535,4.885,10.535,12.433m-5.277,0c0-4.931-2.619-8.172-6.614-8.172-3.923,0-6.562,3.309-6.562,8.172,0,4.907,2.639,8.194,6.562,8.194,4,0,6.614-3.217,6.614-8.194" transform="translate(82.205 36.079)"/><path class="d" d="M80.158,33.781c0,7.567-4.161,12.431-10.438,12.431-3.564,0-6.4-1.552-7.871-4.261h-.119V54.013H56.6V21.6h4.97v4.051h.094a8.921,8.921,0,0,1,7.965-4.307c6.349,0,10.532,4.885,10.532,12.433m-5.277,0c0-4.931-2.616-8.172-6.612-8.172-3.923,0-6.562,3.309-6.562,8.172,0,4.907,2.639,8.194,6.562,8.194,4,0,6.612-3.217,6.612-8.194" transform="translate(99.77 36.079)"/><path class="d" d="M75.064,42.525c.379,3.311,3.686,5.488,8.2,5.488,4.327,0,7.44-2.176,7.44-5.162,0-2.593-1.879-4.145-6.324-5.208L79.938,36.6c-6.3-1.482-9.228-4.35-9.228-9.006,0-5.762,5.161-9.722,12.483-9.722,7.25,0,12.22,3.96,12.389,9.722H90.4c-.312-3.333-3.141-5.345-7.275-5.345s-6.968,2.036-6.968,5c0,2.362,1.807,3.753,6.227,4.815l3.782.9c7.037,1.622,9.966,4.374,9.966,9.262,0,6.249-5.117,10.163-13.248,10.163-7.609,0-12.745-3.823-13.074-9.864Z" transform="translate(123.063 30.203)"/><path class="d" d="M88.959,19.3v5.765h4.758v3.957H88.959V42.448c0,2.087.953,3.059,3.045,3.059a16.166,16.166,0,0,0,1.688-.116v3.936a14.412,14.412,0,0,1-2.851.231c-5.064,0-7.04-1.851-7.04-6.574V29.022H80.162V25.065H83.8V19.3Z" transform="translate(141.314 32.618)"/><path class="d" d="M86.065,33.81c0-7.664,4.633-12.479,11.864-12.479,7.252,0,11.866,4.815,11.866,12.479,0,7.683-4.592,12.479-11.866,12.479s-11.864-4.8-11.864-12.479m18.5,0c0-5.256-2.476-8.358-6.634-8.358S91.3,28.578,91.3,33.81c0,5.278,2.473,8.355,6.634,8.355s6.634-3.077,6.634-8.355" transform="translate(151.72 36.05)"/><path class="d" d="M96.186,21.6h4.9v4.145h.119a5.95,5.95,0,0,1,6.017-4.4,7.979,7.979,0,0,1,1.76.188v4.675a7.338,7.338,0,0,0-2.307-.3c-3.3,0-5.352,2.176-5.352,5.6V45.958H96.186Z" transform="translate(169.562 36.077)"/><path class="d" d="M123.781,38.832c-.691,4.422-5.111,7.457-10.77,7.457-7.277,0-11.795-4.748-11.795-12.363,0-7.64,4.542-12.595,11.579-12.595,6.921,0,11.272,4.63,11.272,12.014v1.714H106.4v.3c0,4.167,2.688,6.9,6.73,6.9,2.851,0,5.089-1.321,5.777-3.427Zm-17.356-7.268h12.5c-.119-3.728-2.567-6.182-6.134-6.182a6.254,6.254,0,0,0-6.371,6.182" transform="translate(178.431 36.05)"/><path class="d" d="M41.628,8.731c4.887,0,7.755,2.924,7.755,7.976,0,5.127-2.846,8.075-7.755,8.075H35.671V8.731Zm-3.4,13.781H41.34c3.448,0,5.437-2.09,5.437-5.773,0-3.626-2.022-5.741-5.437-5.741H38.232Z" transform="translate(62.883 14.756)"/><path class="d" d="M41.681,16.392c0-3.906,2.241-6.284,5.871-6.284s5.863,2.378,5.863,6.284c0,3.925-2.23,6.295-5.863,6.295s-5.871-2.37-5.871-6.295m9.209,0c0-2.625-1.21-4.161-3.338-4.161s-3.335,1.536-3.335,4.161c0,2.647,1.2,4.17,3.335,4.17s3.338-1.533,3.338-4.17" transform="translate(73.477 17.083)"/><path class="d" d="M60.395,22.308H57.847l-2.572-8.92h-.193l-2.561,8.92H50L46.569,10.195h2.489l2.23,9.243h.185l2.556-9.243h2.357l2.558,9.243h.193l2.219-9.243h2.453Z" transform="translate(82.095 17.23)"/><path class="d" d="M53.854,10.342h2.359v1.923H56.4a3.738,3.738,0,0,1,3.713-2.157c2.779,0,4.3,1.625,4.3,4.506v7.841H61.963V15.214c0-1.948-.87-2.913-2.685-2.913A2.81,2.81,0,0,0,56.31,15.37v7.086H53.854Z" transform="translate(94.937 17.083)"/><rect class="d" width="2.456" height="16.842" transform="translate(163.268 22.696)"/><path class="d" d="M61.218,16.392c0-3.906,2.241-6.284,5.871-6.284s5.866,2.378,5.866,6.284c0,3.925-2.232,6.295-5.866,6.295s-5.871-2.37-5.871-6.295m9.209,0c0-2.625-1.21-4.161-3.338-4.161s-3.335,1.536-3.335,4.161c0,2.647,1.2,4.17,3.335,4.17s3.338-1.533,3.338-4.17" transform="translate(107.918 17.083)"/><path class="d" d="M66.4,19.031c0-2.182,1.669-3.438,4.628-3.615l3.371-.191V14.181c0-1.28-.868-2-2.547-2-1.37,0-2.321.492-2.592,1.348H66.881c.251-2.082,2.263-3.416,5.084-3.416,3.119,0,4.879,1.512,4.879,4.073v8.275H74.479v-1.7h-.193a4.218,4.218,0,0,1-3.738,1.9c-2.4,0-4.147-1.41-4.147-3.623M74.4,18V16.984l-3.039.188c-1.713.11-2.489.678-2.489,1.746,0,1.092.973,1.724,2.307,1.724C73.028,20.642,74.4,19.5,74.4,18" transform="translate(117.053 17.083)"/><path class="d" d="M71.348,19.216c0-3.828,2.02-6.252,5.164-6.252a4.118,4.118,0,0,1,3.815,2.125h.182V8.437h2.456v16.84H80.615V23.364h-.2a4.343,4.343,0,0,1-3.907,2.114c-3.163,0-5.164-2.426-5.164-6.262m2.536,0c0,2.569,1.243,4.116,3.324,4.116s3.349-1.568,3.349-4.1-1.293-4.116-3.349-4.116-3.324,1.558-3.324,4.1" transform="translate(125.776 14.259)"/><path class="d" d="M79.23,16.392c0-3.906,2.241-6.284,5.871-6.284s5.863,2.378,5.863,6.284c0,3.925-2.23,6.295-5.863,6.295s-5.871-2.37-5.871-6.295m9.209,0c0-2.625-1.21-4.161-3.338-4.161s-3.335,1.536-3.335,4.161c0,2.647,1.2,4.17,3.335,4.17s3.338-1.533,3.338-4.17" transform="translate(139.671 17.083)"/><path class="d" d="M84.67,10.342h2.359v1.923h.185a3.742,3.742,0,0,1,3.716-2.157c2.774,0,4.3,1.625,4.3,4.506v7.841H92.779V15.214c0-1.948-.87-2.913-2.686-2.913a2.811,2.811,0,0,0-2.967,3.069v7.086H84.67Z" transform="translate(149.261 17.083)"/><path class="d" d="M96.343,9.074v3.072h2.7v2.012h-2.7v6.23c0,1.267.536,1.824,1.76,1.824a8.577,8.577,0,0,0,.937-.056v1.993a8.432,8.432,0,0,1-1.337.121c-2.73,0-3.818-.936-3.818-3.271V14.158H91.911V12.146h1.973V9.074Z" transform="translate(162.026 15.335)"/><path class="d" d="M95.705,8.437h2.434v6.674h.193a3.846,3.846,0,0,1,3.793-2.168c2.65,0,4.285,1.636,4.285,4.517v7.82h-2.459V18.048c0-1.934-.926-2.916-2.661-2.916a2.868,2.868,0,0,0-3.13,3.072v7.075H95.705Z" transform="translate(168.714 14.259)"/><path class="d" d="M111.867,19.184c-.558,2.171-2.547,3.505-5.39,3.505-3.564,0-5.747-2.381-5.747-6.252s2.227-6.33,5.736-6.33c3.462,0,5.551,2.3,5.551,6.106v.834H103.23v.135c.08,2.125,1.348,3.47,3.313,3.47a3.006,3.006,0,0,0,2.962-1.469Zm-8.637-3.9h6.283a2.959,2.959,0,0,0-3.061-3.139,3.144,3.144,0,0,0-3.221,3.139" transform="translate(177.572 17.083)"/></g></svg>