<svg xmlns="http://www.w3.org/2000/svg" xmlns:xlink="http://www.w3.org/1999/xlink" width="64.351" height="60" viewBox="0 0 64.351 60"><defs><style>.a{fill:url(#a);}</style><linearGradient id="a" x1="-0.133" y1="0.698" x2="1.274" y2="0.549" gradientUnits="objectBoundingBox"><stop offset="0" stop-color="#ffd918"/><stop offset="1" stop-color="#f42373"/></linearGradient></defs><path class="a" d="M42.726,55.823V41.363a9.351,9.351,0,0,1,2.638-6.515V55.823a1.319,1.319,0,0,1-2.638,0m-23.739,0V34.847a9.353,9.353,0,0,1,2.637,6.516V55.823a1.319,1.319,0,1,1-2.637,0M6.929,24.052A5.07,5.07,0,1,1,12,29.122a5.077,5.077,0,0,1-5.07-5.07m40.111,0a5.07,5.07,0,1,1,5.07,5.07,5.076,5.076,0,0,1-5.07-5.07M25.082,9.952a7.094,7.094,0,1,1,7.093,7.094,7.1,7.1,0,0,1-7.093-7.094m7-9.952A9.947,9.947,0,0,0,26.7,18.257a16.1,16.1,0,0,0-6.844,4.814A7.925,7.925,0,1,0,7.087,30.264,12.257,12.257,0,0,0,0,41.363V52.369a1.429,1.429,0,1,0,2.859,0V41.363a9.381,9.381,0,0,1,13.278-8.535c-.006.171-.008.343-.008.515v22.48a4.178,4.178,0,0,0,8.355,0V41.363a12.238,12.238,0,0,0-5.332-10.1,13.19,13.19,0,0,1,26.049,0,12.238,12.238,0,0,0-5.332,10.1V55.823a4.177,4.177,0,1,0,8.355,0V33.343c0-.173,0-.345-.008-.515a9.382,9.382,0,0,1,13.279,8.535V52.369a1.429,1.429,0,1,0,2.858,0V41.363A12.255,12.255,0,0,0,57.113,30.2a7.924,7.924,0,1,0-12.828-7.368,16.107,16.107,0,0,0-6.639-4.57A9.947,9.947,0,0,0,32.264,0Z"/></svg>