<?xml version="1.0" standalone="no"?>
<!DOCTYPE svg PUBLIC "-//W3C//DTD SVG 20010904//EN"
 "http://www.w3.org/TR/2001/REC-SVG-20010904/DTD/svg10.dtd">
<svg version="1.0" xmlns="http://www.w3.org/2000/svg"
 width="1024.000000pt" height="1024.000000pt" viewBox="0 0 1024.000000 1024.000000"
 preserveAspectRatio="xMidYMid meet">
<metadata>
Created by potrace 1.11, written by Peter Selinger 2001-2013
</metadata>
<g transform="translate(0.000000,1024.000000) scale(0.100000,-0.100000)"
fill="#000000" stroke="none">
<path d="M4925 9880 c-22 -5 -57 -11 -77 -14 -21 -3 -57 -11 -80 -16 -24 -6
-54 -13 -67 -16 -13 -3 -48 -13 -77 -24 -29 -10 -55 -15 -58 -12 -3 3 -6 0 -6
-6 0 -7 -7 -12 -16 -12 -23 0 -224 -100 -224 -112 0 -5 -4 -7 -9 -4 -4 3 -22
-5 -39 -17 -16 -12 -40 -29 -52 -37 -26 -17 -119 -89 -137 -105 -41 -37 -141
-135 -138 -135 2 0 -6 -10 -18 -23 -40 -43 -72 -83 -112 -143 -22 -32 -44 -62
-48 -65 -5 -3 -8 -9 -7 -13 1 -4 -9 -24 -21 -44 -25 -41 -99 -198 -104 -222
-2 -8 -9 -28 -16 -45 -6 -16 -13 -35 -14 -40 -2 -6 -12 -49 -23 -95 -24 -95
-29 -127 -39 -220 -11 -109 -5 -320 13 -405 3 -16 7 -39 9 -50 11 -78 91 -326
109 -337 6 -4 8 -8 4 -8 -13 0 127 -250 151 -270 4 -3 15 -18 25 -34 47 -74
210 -237 312 -312 69 -51 84 -74 48 -74 -8 0 -22 -4 -32 -9 -34 -18 -90 -41
-101 -41 -6 0 -11 -5 -11 -10 0 -6 -3 -9 -7 -8 -5 1 -19 -3 -33 -9 -14 -6 -29
-11 -34 -11 -5 0 -12 -4 -15 -9 -3 -4 -26 -19 -51 -32 -37 -20 -111 -63 -245
-144 -11 -7 -22 -14 -25 -18 -4 -4 -67 -51 -95 -71 -52 -36 -192 -163 -285
-260 -64 -65 -119 -118 -123 -118 -5 0 -8 10 -7 23 1 12 1 24 0 27 -1 3 -4 19
-6 35 -7 47 -54 196 -75 239 -10 22 -19 43 -19 48 0 4 -18 37 -40 73 -22 36
-40 70 -40 75 0 5 -8 14 -17 19 -10 6 -13 11 -8 11 7 0 7 3 0 8 -6 4 -29 32
-52 62 -88 116 -250 250 -393 326 -129 69 -328 133 -429 137 -28 1 -51 4 -51
7 0 8 -228 4 -275 -4 -22 -4 -51 -9 -65 -11 -96 -14 -304 -90 -390 -143 -19
-12 -46 -27 -60 -34 -25 -13 -50 -31 -76 -56 -8 -7 -14 -11 -14 -7 0 13 -138
-120 -201 -195 -47 -55 -122 -169 -149 -225 -8 -16 -18 -32 -22 -35 -4 -3 -9
-15 -11 -25 -2 -11 -8 -29 -14 -40 -12 -22 -51 -139 -59 -176 -27 -127 -35
-191 -36 -289 -1 -76 10 -218 16 -229 2 -3 7 -22 10 -41 15 -91 106 -340 128
-348 4 -2 8 -8 8 -13 0 -40 245 -339 277 -339 5 0 14 -9 20 -20 12 -17 6 -22
-60 -58 -142 -76 -161 -88 -266 -168 -135 -102 -266 -231 -365 -359 -42 -55
-80 -104 -84 -110 -74 -96 -214 -393 -248 -524 -2 -9 -13 -50 -24 -91 -12 -41
-23 -90 -25 -108 -2 -18 -6 -41 -9 -50 -17 -56 -21 -258 -21 -1142 0 -917 1
-987 17 -1020 41 -80 99 -121 184 -128 78 -6 132 14 183 67 69 71 64 6 66
1061 1 525 6 980 10 1010 4 30 9 69 10 85 2 17 4 30 5 30 1 0 3 8 5 19 11 57
31 128 57 200 16 44 30 86 31 91 1 6 4 12 7 15 3 3 23 41 45 85 22 44 43 82
47 83 5 2 8 10 8 18 0 8 5 14 10 14 6 0 10 7 10 15 0 8 4 15 8 15 5 0 15 12
23 27 32 62 170 213 266 289 51 41 63 51 87 72 8 6 17 12 20 12 3 0 24 13 48
29 65 43 235 128 273 135 11 3 36 11 56 20 20 8 47 17 60 20 13 3 42 10 64 16
134 35 419 48 560 25 56 -8 245 -55 264 -65 9 -4 35 -14 58 -21 24 -7 43 -16
43 -20 0 -4 8 -9 18 -11 16 -3 17 -100 18 -1848 1 -1015 4 -1869 8 -1897 24
-210 185 -425 381 -512 28 -13 57 -24 65 -26 116 -30 144 -34 230 -31 98 4
118 7 179 28 20 7 38 13 41 13 93 24 241 143 311 250 21 33 42 65 46 70 5 6
10 17 12 25 2 8 12 38 22 67 10 29 21 67 25 85 9 45 10 2515 1 2603 -26 245
-82 442 -189 665 -23 47 -56 109 -74 138 -19 29 -34 56 -34 60 0 4 -11 19 -25
34 -14 15 -25 30 -25 33 0 10 -87 121 -139 177 -91 100 -152 157 -236 223 -27
21 -55 44 -60 49 -6 6 -19 16 -30 22 -27 15 -25 57 9 194 53 210 168 480 263
617 96 138 118 169 137 191 109 131 238 258 331 327 22 17 42 33 43 38 2 4 8
7 14 7 5 0 16 7 25 15 20 21 135 95 198 129 28 15 57 31 65 35 89 48 219 101
344 140 54 17 103 28 107 25 5 -3 9 -1 9 4 0 5 6 9 13 10 23 2 79 11 96 16 9
3 39 8 66 12 28 3 59 8 70 10 50 10 336 21 355 14 3 -1 25 -3 50 -5 81 -5 173
-16 245 -31 17 -4 40 -7 53 -8 12 0 22 -5 22 -10 0 -4 6 -6 14 -3 8 3 17 3 20
-1 4 -3 12 -7 19 -8 7 -2 24 -6 39 -9 15 -3 40 -10 55 -16 16 -6 36 -12 45
-14 27 -6 222 -86 232 -96 6 -5 18 -9 27 -9 10 0 19 -3 21 -7 2 -5 21 -17 43
-28 52 -25 191 -111 205 -125 3 -3 19 -14 35 -24 81 -51 265 -218 355 -322
160 -184 289 -397 375 -619 20 -53 38 -101 39 -108 2 -7 6 -19 9 -27 7 -17 21
-72 46 -175 5 -22 12 -59 16 -82 5 -38 3 -44 -22 -60 -15 -10 -33 -22 -39 -28
-6 -5 -29 -23 -50 -40 -84 -65 -189 -166 -259 -251 -22 -26 -47 -55 -55 -63
-39 -41 -167 -248 -214 -346 -50 -103 -105 -239 -110 -268 -1 -6 -4 -16 -8
-22 -3 -5 -13 -44 -23 -85 -9 -41 -19 -84 -21 -95 -3 -11 -10 -49 -15 -85 -6
-36 -13 -78 -16 -95 -2 -16 -6 -599 -7 -1295 -2 -961 1 -1281 10 -1330 14 -76
45 -161 81 -226 29 -52 161 -194 180 -194 7 0 13 -4 13 -9 0 -11 124 -76 165
-86 17 -5 35 -10 40 -11 37 -13 130 -24 185 -23 130 4 267 48 373 120 66 45
165 160 203 236 22 42 39 79 40 82 0 3 6 26 13 51 8 25 15 61 18 80 3 19 5
871 6 1893 l2 1859 25 14 c62 34 293 99 400 112 113 14 379 6 464 -13 12 -3
32 -7 46 -10 27 -5 145 -38 170 -47 22 -9 44 -15 53 -16 4 -1 20 -7 35 -15 15
-8 59 -30 97 -48 39 -19 72 -36 75 -39 3 -3 25 -18 50 -32 49 -29 60 -37 154
-113 56 -46 186 -172 186 -182 0 -2 10 -14 21 -26 75 -77 230 -359 255 -462 4
-16 9 -34 13 -40 3 -5 6 -14 7 -20 1 -5 6 -28 12 -50 15 -53 23 -94 27 -130 2
-16 6 -46 10 -65 4 -19 9 -469 11 -1000 1 -531 4 -972 7 -980 35 -123 150
-193 274 -166 55 12 120 63 151 121 16 27 17 119 19 1015 1 546 -3 1014 -8
1050 -15 112 -51 288 -66 330 -4 8 -7 20 -8 26 -24 111 -219 508 -256 522 -5
2 -9 10 -9 17 0 8 -6 20 -12 27 -7 7 -40 47 -73 88 -81 102 -282 300 -304 300
-5 0 -11 4 -13 8 -5 12 -116 92 -128 92 -5 0 -10 4 -10 9 0 5 -9 13 -20 16
-11 3 -26 12 -32 18 -7 7 -56 35 -109 62 l-96 49 72 71 c40 38 93 97 119 130
26 33 50 65 55 71 37 46 148 274 134 274 -3 0 -1 6 5 13 14 16 58 194 67 267
9 66 9 259 1 297 -3 16 -8 44 -11 63 -8 56 -26 133 -35 155 -4 11 -18 49 -30
85 -37 106 -118 248 -198 345 -68 84 -187 197 -196 188 -3 -4 -6 -1 -6 5 0 15
-145 109 -231 150 -102 48 -243 94 -299 96 -14 1 -28 5 -31 9 -16 22 -320 24
-429 2 -14 -3 -41 -8 -60 -12 -19 -4 -37 -8 -40 -8 -38 -7 -244 -87 -251 -98
-3 -5 -8 -7 -11 -5 -8 6 -178 -103 -178 -114 0 -6 -3 -9 -6 -5 -9 9 -154 -125
-219 -204 -98 -120 -218 -354 -241 -474 -3 -17 -10 -49 -20 -87 -1 -5 -2 -16
-3 -25 -1 -11 -34 17 -98 83 -104 105 -222 212 -283 254 -12 8 -52 38 -90 65
-37 28 -81 57 -97 66 -15 9 -54 33 -85 52 -32 20 -58 33 -58 30 0 -3 -7 0 -15
7 -15 13 -193 101 -210 104 -5 2 -27 10 -49 19 -21 9 -42 17 -47 17 -28 0 -9
25 57 75 83 62 264 237 264 254 0 6 3 11 8 11 4 0 21 20 37 45 17 24 33 45 38
45 4 0 7 6 7 13 0 7 8 22 18 33 36 42 126 221 165 329 34 95 70 243 62 255 -3
5 -2 10 4 10 5 0 8 8 6 18 -1 9 0 21 3 26 14 25 20 278 8 376 -4 36 -8 72 -8
80 -1 31 -60 263 -78 306 -11 24 -20 46 -20 49 0 3 -12 31 -27 62 -14 32 -27
61 -27 65 -1 4 -7 13 -13 20 -7 6 -13 16 -13 21 0 16 -79 138 -145 222 -55 71
-159 180 -222 232 -12 10 -30 25 -40 33 -93 78 -324 207 -428 240 -22 7 -44
15 -50 19 -5 3 -14 6 -20 8 -5 1 -55 13 -110 27 -55 13 -118 27 -140 31 -60
10 -384 13 -430 5z m295 -450 c0 -3 17 -6 38 -6 57 -3 118 -15 167 -34 17 -6
32 -11 35 -11 11 2 79 -23 138 -51 229 -105 428 -303 534 -528 63 -134 82
-193 105 -331 9 -56 8 -292 -1 -344 -42 -230 -150 -443 -308 -605 -63 -65
-179 -157 -228 -182 -14 -7 -36 -20 -50 -29 -25 -16 -172 -78 -200 -84 -8 -1
-35 -8 -60 -15 -25 -7 -58 -14 -75 -16 -210 -26 -314 -22 -485 21 -69 17 -73
19 -165 61 -33 15 -62 27 -65 27 -8 -2 -144 90 -190 127 -73 60 -180 172 -201
212 -7 13 -15 25 -19 28 -10 7 -72 117 -97 170 -39 86 -74 198 -89 290 -10 59
-10 291 0 355 13 79 53 210 88 283 17 37 32 69 33 72 5 16 47 81 89 138 53 71
136 157 200 207 21 17 45 36 52 43 7 6 17 12 23 12 6 0 11 5 11 10 0 6 7 10
15 10 8 0 15 5 15 12 0 6 3 8 7 5 3 -4 11 -3 17 2 43 35 238 115 306 126 14 3
39 7 55 10 102 18 305 28 305 15z m-3165 -2575 c23 -4 105 -27 145 -40 114
-37 270 -157 357 -275 50 -68 111 -184 117 -222 1 -7 5 -19 9 -25 5 -7 6 -17
2 -22 -3 -5 -1 -12 4 -15 16 -11 36 -253 23 -280 -3 -5 -6 -25 -8 -45 -5 -52
-42 -167 -75 -232 -45 -91 -182 -259 -210 -259 -5 0 -9 -4 -9 -8 0 -4 -36 -30
-79 -56 -88 -53 -216 -101 -301 -112 -88 -12 -224 -7 -295 10 -11 3 -36 9 -55
14 -59 15 -169 69 -234 116 -140 100 -235 225 -296 388 -33 92 -48 188 -44
292 4 96 10 144 24 180 5 14 7 26 4 26 -2 0 1 10 8 23 6 12 13 27 14 32 4 26
50 115 87 170 123 181 323 308 545 345 51 8 218 5 267 -5z m6375 1 c109 -21
198 -55 299 -116 70 -42 186 -157 235 -232 42 -66 86 -156 86 -179 0 -8 4 -19
9 -25 5 -5 12 -25 16 -44 3 -19 9 -51 13 -70 9 -48 8 -216 -1 -265 -5 -22 -10
-49 -12 -60 -2 -11 -4 -21 -5 -22 -2 -2 -3 -6 -4 -10 -10 -46 -70 -171 -110
-228 -106 -152 -287 -282 -448 -321 -10 -2 -28 -6 -40 -9 -100 -24 -320 -23
-361 2 -4 2 -19 7 -34 9 -43 8 -157 60 -219 99 -192 123 -333 346 -360 568
-12 100 -4 249 16 302 5 14 9 29 8 33 -3 18 76 185 109 230 45 60 46 61 93
109 182 186 460 276 710 229z m-5269 -2682 c32 -45 59 -85 59 -88 0 -3 11 -21
24 -40 23 -35 115 -237 121 -267 4 -21 26 -100 33 -119 3 -8 7 -24 9 -35 2
-11 6 -29 8 -40 2 -11 4 -20 5 -20 2 0 10 -75 15 -145 3 -36 5 -604 6 -1264
l0 -1198 -25 -52 c-37 -74 -109 -116 -196 -116 -84 1 -182 87 -194 172 -3 23
-5 793 -5 1711 l1 1667 40 -42 c22 -23 66 -79 99 -124z m4056 -1531 c-2 -1647
-3 -1699 -21 -1733 -21 -38 -61 -77 -88 -86 -10 -3 -18 -9 -18 -13 0 -4 -15
-8 -32 -10 -18 -1 -42 -4 -53 -5 -33 -3 -101 23 -132 52 -40 37 -59 69 -68
117 -8 44 -8 2332 0 2460 2 44 7 91 10 105 4 14 8 36 10 50 4 30 8 45 30 129
32 125 113 303 182 403 18 26 33 50 33 54 0 3 6 11 13 18 6 8 38 46 71 85 32
39 60 71 62 71 1 0 2 -764 1 -1697z"/>
</g>
</svg>
